Coordinates
version=1
nRows=6
nColumns=63
inDegrees=yes

Units are S.I. units (second, meters, Newtons, ...)
If the header above contains a line with 'inDegrees', this indicates whether rotational values are in degrees (yes) or radians (no).

endheader
time	pelvis_tilt	pelvis_list	pelvis_rotation	pelvis_tx	pelvis_ty	pelvis_tz	hip_flexion_r	hip_adduction_r	hip_rotation_r	knee_angle_r	knee_angle_r_beta	ankle_angle_r	subtalar_angle_r	mtp_angle_r	hip_flexion_l	hip_adduction_l	hip_rotation_l	knee_angle_l	knee_angle_l_beta	ankle_angle_l	subtalar_angle_l	mtp_angle_l	L5_S1_Flex_Ext	L5_S1_Lat_Bending	L5_S1_axial_rotation	L4_L5_Flex_Ext	L4_L5_Lat_Bending	L4_L5_axial_rotation	L3_L4_Flex_Ext	L3_L4_Lat_Bending	L3_L4_axial_rotation	L2_L3_Flex_Ext	L2_L3_Lat_Bending	L2_L3_axial_rotation	L1_L2_Flex_Ext	L1_L2_Lat_Bending	L1_L2_axial_rotation	L1_T12_Flex_Ext	L1_T12_Lat_Bending	L1_T12_axial_rotation	Abs_r3	Abs_r2	Abs_r1	Abs_t1	Abs_t2	neck_flexion	neck_bending	neck_rotation	arm_flex_r	arm_add_r	arm_rot_r	elbow_flex_r	pro_sup_r	wrist_flex_r	wrist_dev_r	arm_flex_l	arm_add_l	arm_rot_l	elbow_flex_l	pro_sup_l	wrist_flex_l	wrist_dev_l
      1.15000000	    -10.01737871	     -6.10052207	     92.02068699	      0.29177848	      0.98774610	      0.22879115	      5.33630006	    -10.30842988	    -15.43200468	     11.84473323	      0.20672959	     24.26770785	     16.87123140	      0.00000000	      5.84631222	      8.52455814	     -8.91066575	     10.16869822	      0.17747726	     12.06339592	     -1.61696332	      0.00000000	     -1.06047152	     -1.74249878	      1.11728234	     -1.96940165	     -2.31752338	      1.18711249	     -1.74224865	     -4.23671153	      1.18711249	     -1.21201289	     -4.23671153	      0.97762205	     -0.98475385	     -3.55330351	      0.90779190	     -0.60595342	     -2.69913061	      0.83796176	     -7.57484199	    -19.71149469	      6.21398920	      0.00000000	      0.00000000	    -28.41246650	     -4.63675553	     14.58599359	     49.73980402	     -8.51238660	      4.04814094	    116.50324419	     88.35088074	     14.03983914	     17.68766984	    -56.87417278	    -44.08850533	    -18.20909264	    115.70119460	     89.59799150	     41.33462846	     34.45470553
      1.16666667	    -10.28675043	     -7.10079938	     93.43272068	      0.29240470	      0.98640655	      0.23022907	      6.29285556	    -10.65559721	    -16.30508961	     12.15953277	      0.21222388	     24.86532108	     16.63515214	      0.00000000	      7.23461574	      8.68867569	     -8.77163913	     10.82622481	      0.18895327	     12.41558517	     -0.21660734	      0.00000000	     -1.08413368	     -1.74929358	      1.07994486	     -2.01334466	     -2.32656046	      1.14744141	     -1.78112322	     -4.25323242	      1.14744141	     -1.23905638	     -4.25323242	      0.94495175	     -1.00672654	     -3.56715947	      0.87745520	     -0.61947399	     -2.70965576	      0.80995864	     -7.74385847	    -19.78835886	      6.00632931	      0.00000000	      0.00000000	    -28.42912252	     -6.75822240	     15.91924162	     53.07902279	     -6.80365366	      6.57239118	    113.22058813	     87.87228285	     13.57188846	     16.56724851	    -61.92524170	    -46.34078554	    -21.90028843	    119.77127693	     89.64169096	     44.35144700	     34.49483870
      1.18333333	    -10.32339144	     -8.59707058	     94.95128137	      0.29220054	      0.98449608	      0.23266467	      7.94922834	    -10.96190508	    -17.27072177	     12.82005417	      0.22375216	     25.36497261	     16.13342276	      0.00000000	      9.33038436	      8.77210119	     -8.34886340	     11.75459560	      0.20515640	     12.62268497	      0.55210111	      0.00000000	     -1.06125947	     -1.72716009	      1.04665895	     -1.97086497	     -2.29712292	      1.11207513	     -1.74354319	     -4.19941704	      1.11207513	     -1.21291345	     -4.19941704	      0.91582658	     -0.98548555	     -3.52202485	      0.85041039	     -0.60640366	     -2.67537098	      0.78499421	     -7.58047030	    -19.53798034	      5.82120306	      0.00000000	      0.00000000	    -28.42537818	     -9.44045954	     16.90832549	     55.54970396	     -5.12489222	      9.40590283	    110.02302363	     86.64431300	     12.59441744	     15.21899528	    -66.92921315	    -48.04260001	    -26.24402780	    124.02189263	     89.65820599	     46.32838864	     34.50983589
      1.20000000	    -10.21293907	    -10.16543471	     96.57280080	      0.29118693	      0.98255931	      0.23582104	      9.58792160	    -11.24916717	    -18.43196329	     13.29062867	      0.23196523	     25.77398064	     15.79889599	      0.00000000	     11.36465773	      8.88283315	     -7.84992182	     12.37564691	      0.21599579	     12.61112046	      1.47803263	      0.00000000	     -1.05645816	     -1.69456172	      1.03954375	     -1.96194845	     -2.25376709	      1.10451523	     -1.73565511	     -4.12015737	      1.10451523	     -1.20742603	     -4.12015737	      0.90960078	     -0.98102705	     -3.45555026	      0.84462929	     -0.60366019	     -2.62487611	      0.77965781	     -7.54617498	    -19.16922110	      5.78163046	      0.00000000	      0.00000000	    -28.41119303	    -11.73915724	     17.36501202	     57.35014891	     -3.85729656	     12.65382442	    106.80469889	     85.55761390	     11.08022810	     12.97762916	    -71.24442724	    -48.64400349	    -31.94670474	    128.87339455	     89.62577242	     48.65235188	     34.47215003
      1.21666667	     -9.36418489	    -11.71671505	     98.39208983	      0.28834712	      0.98057180	      0.24095022	     11.42993974	    -11.02234896	    -19.71860448	     13.89030765	      0.24243160	     25.92618609	     15.36347007	      0.00000000	     13.78741727	      8.50710243	     -6.84061463	     13.44403085	      0.23464260	     12.68580350	      1.52813110	      0.00000000	     -1.06862091	     -1.55788491	      1.10839290	     -1.98453590	     -2.07198693	      1.17766746	     -1.75563730	     -3.78784136	      1.17766746	     -1.22132684	     -3.78784136	      0.96984379	     -0.99232138	     -3.17683890	      0.90056923	     -0.61060999	     -2.41316372	      0.83129468	     -7.63305233	    -17.62310564	      6.16454880	      0.00000000	      0.00000000	    -28.40130414	    -13.84717572	     16.87923059	     59.09125121	     -3.58102763	     16.33984331	    103.42098270	     85.67076405	     10.52034185	     11.51524262	    -73.14052429	    -48.37643194	    -37.44060652	    134.06744525	     89.49518598	     50.21364453	     34.33536561
      1.23333333	     -7.81729192	    -12.88976090	    100.71152859	      0.28357477	      0.97895841	      0.24778750	     12.91255433	    -10.32152304	    -21.62757279	     14.36076322	      0.25064260	     25.80499644	     15.07100346	      0.00000000	     16.18110460	      7.76623769	     -4.93395296	     14.81300861	      0.25853577	     12.78909763	      0.77790115	      0.00000000	     -1.12484411	     -1.30494478	      1.20532974	     -2.08894800	     -1.73557656	      1.28066285	     -1.84800639	     -3.17284274	      1.28066285	     -1.28558433	     -3.17284274	      1.05466352	     -1.04453024	     -2.66104340	      0.97933041	     -0.64273593	     -2.02135947	      0.90399731	     -8.03464900	    -14.76179637	      6.70368242	      0.00000000	      0.00000000	    -28.40701972	    -15.77976896	     15.75821375	     61.18995066	     -4.39262837	     20.72825329	     99.29925855	     86.64203294	     10.71589161	     11.01023553	    -72.64000484	    -47.89371541	    -41.85407430	    139.13694695	     89.06114581	     48.76962838	     34.00853778
